<svg width="50" height="50" viewBox="0 0 50 50" fill="none" xmlns="http://www.w3.org/2000/svg">
<path d="M25 14.9853C19.4581 14.9853 14.9854 19.458 14.9854 25C14.9854 30.542 19.4581 35.0146 25 35.0146C30.542 35.0146 35.0147 30.542 35.0147 25C35.0147 19.458 30.542 14.9853 25 14.9853ZM25 31.5088C21.4161 31.5088 18.4913 28.584 18.4913 25C18.4913 21.416 21.4161 18.4912 25 18.4912C28.584 18.4912 31.5088 21.416 31.5088 25C31.5088 28.584 28.584 31.5088 25 31.5088ZM35.4249 12.2412C34.1309 12.2412 33.086 13.2861 33.086 14.5801C33.086 15.874 34.1309 16.9189 35.4249 16.9189C36.7188 16.9189 37.7637 15.8789 37.7637 14.5801C37.7641 14.2728 37.7039 13.9685 37.5865 13.6846C37.4691 13.4006 37.2968 13.1426 37.0795 12.9254C36.8623 12.7081 36.6043 12.5359 36.3204 12.4184C36.0364 12.301 35.7321 12.2408 35.4249 12.2412ZM44.5215 25C44.5215 22.3047 44.5459 19.6338 44.3946 16.9433C44.2432 13.8183 43.5303 11.0449 41.2452 8.75975C38.9551 6.46971 36.1866 5.76171 33.0616 5.61034C30.3663 5.45897 27.6954 5.48339 25.0049 5.48339C22.3096 5.48339 19.6387 5.45897 16.9483 5.61034C13.8233 5.76171 11.0499 6.4746 8.7647 8.75975C6.47466 11.0498 5.76665 13.8183 5.61528 16.9433C5.46392 19.6387 5.48833 22.3096 5.48833 25C5.48833 27.6904 5.46392 30.3662 5.61528 33.0566C5.76665 36.1816 6.47954 38.9551 8.7647 41.2402C11.0547 43.5303 13.8233 44.2383 16.9483 44.3896C19.6436 44.541 22.3145 44.5166 25.0049 44.5166C27.7002 44.5166 30.3711 44.541 33.0616 44.3896C36.1866 44.2383 38.96 43.5254 41.2452 41.2402C43.5352 38.9502 44.2432 36.1816 44.3946 33.0566C44.5508 30.3662 44.5215 27.6953 44.5215 25ZM40.2247 36.5137C39.8682 37.4023 39.4385 38.0664 38.75 38.75C38.0616 39.4385 37.4024 39.8681 36.5137 40.2246C33.9454 41.2451 27.8467 41.0156 25 41.0156C22.1534 41.0156 16.0499 41.2451 13.4815 40.2295C12.5928 39.873 11.9288 39.4433 11.2452 38.7549C10.5567 38.0664 10.127 37.4072 9.77056 36.5185C8.75493 33.9453 8.98442 27.8467 8.98442 25C8.98442 22.1533 8.75493 16.0498 9.77056 13.4814C10.127 12.5928 10.5567 11.9287 11.2452 11.2451C11.9336 10.5615 12.5928 10.1269 13.4815 9.7705C16.0499 8.75487 22.1534 8.98436 25 8.98436C27.8467 8.98436 33.9502 8.75487 36.5186 9.7705C37.4073 10.1269 38.0713 10.5566 38.7549 11.2451C39.4434 11.9336 39.8731 12.5928 40.2295 13.4814C41.2452 16.0498 41.0157 22.1533 41.0157 25C41.0157 27.8467 41.2452 33.9453 40.2247 36.5137Z" fill="#219897"/>
</svg>
