<svg width="38" height="38" viewBox="0 0 38 38" fill="none" xmlns="http://www.w3.org/2000/svg">
<path d="M3.16666 19H6.33333C6.32956 17.3355 6.65449 15.6865 7.28947 14.1479C7.92445 12.6092 8.85698 11.211 10.0336 10.0336C11.1859 8.87742 12.5532 7.95767 14.0584 7.32609C17.1609 6.03715 20.6448 6.01385 23.7642 7.26117C23.7947 8.28633 24.2239 9.25917 24.9604 9.97292C25.6969 10.6867 26.6827 11.085 27.7083 11.0833C29.9028 11.0833 31.6667 9.31951 31.6667 7.12501C31.6667 4.93051 29.9028 3.16667 27.7083 3.16667C26.6174 3.16667 25.631 3.60367 24.9169 4.31459C21.0678 2.774 16.6472 2.79776 12.8282 4.408C10.9458 5.19919 9.2356 6.34954 7.79316 7.79475C6.34729 9.23638 5.19638 10.9461 4.40483 12.8282C3.58339 14.7819 3.16236 16.8806 3.16666 19ZM30.6739 23.9432C30.039 25.4505 29.127 26.8058 27.9664 27.9664C26.8058 29.127 25.4505 30.039 23.9416 30.6739C20.8391 31.9629 17.3552 31.9862 14.2357 30.7388C14.2052 29.7137 13.7761 28.7408 13.0396 28.0271C12.3031 27.3133 11.3173 26.915 10.2917 26.9167C8.09716 26.9167 6.33333 28.6805 6.33333 30.875C6.33333 33.0695 8.09716 34.8333 10.2917 34.8333C11.3826 34.8333 12.369 34.3963 13.0831 33.6854C14.9633 34.4447 16.9722 34.8345 19 34.8333C22.1137 34.8393 25.1598 33.9256 27.756 32.2068C30.3523 30.4879 32.3831 28.0406 33.5936 25.1718C34.4161 23.2184 34.8377 21.1196 34.8333 19H31.6667C31.6706 20.6976 31.333 22.3787 30.6739 23.9432Z" fill="#C0EEEC"/>
<path d="M19 11.8148C15.0385 11.8148 11.8148 15.0385 11.8148 19C11.8148 22.9615 15.0385 26.1852 19 26.1852C22.9615 26.1852 26.1852 22.9615 26.1852 19C26.1852 15.0385 22.9615 11.8148 19 11.8148ZM19 23.0185C16.7849 23.0185 14.9815 21.2151 14.9815 19C14.9815 16.7849 16.7849 14.9815 19 14.9815C21.2151 14.9815 23.0185 16.7849 23.0185 19C23.0185 21.2151 21.2151 23.0185 19 23.0185Z" fill="#C0EEEC"/>
</svg>
