<svg width="38" height="38" viewBox="0 0 38 38" fill="none" xmlns="http://www.w3.org/2000/svg">
<path d="M19 19C24.9969 19 29.8571 14.7473 29.8571 9.5C29.8571 4.25273 24.9969 0 19 0C13.0031 0 8.14286 4.25273 8.14286 9.5C8.14286 14.7473 13.0031 19 19 19ZM27.1259 21.4195L23.0714 35.625L20.3571 25.5312L23.0714 21.375H14.9286L17.6429 25.5312L14.9286 35.625L10.8741 21.4195C4.82634 21.6719 0 25.9988 0 31.35V34.4375C0 36.4043 1.82366 38 4.07143 38H33.9286C36.1763 38 38 36.4043 38 34.4375V31.35C38 25.9988 33.1737 21.6719 27.1259 21.4195Z" fill="#C0EEEC"/>
</svg>
