<svg width="144" height="157" viewBox="0 0 144 157" fill="none" xmlns="http://www.w3.org/2000/svg">
<rect width="142" height="157" rx="10" fill="url(#paint0_linear)"/>
<path d="M54.4943 126H50.3903L38.0423 107.316V126H33.9383V100.944H38.0423L50.3903 119.592V100.944H54.4943V126ZM78.0636 115.596C78.0636 116.34 78.0156 117.012 77.9196 117.612H62.7636C62.8836 119.196 63.4716 120.468 64.5276 121.428C65.5836 122.388 66.8796 122.868 68.4156 122.868C70.6236 122.868 72.1836 121.944 73.0956 120.096H77.5236C76.9236 121.92 75.8316 123.42 74.2476 124.596C72.6876 125.748 70.7436 126.324 68.4156 126.324C66.5196 126.324 64.8156 125.904 63.3036 125.064C61.8156 124.2 60.6396 123 59.7756 121.464C58.9356 119.904 58.5156 118.104 58.5156 116.064C58.5156 114.024 58.9236 112.236 59.7396 110.7C60.5796 109.14 61.7436 107.94 63.2316 107.1C64.7436 106.26 66.4716 105.84 68.4156 105.84C70.2876 105.84 71.9556 106.248 73.4196 107.064C74.8836 107.88 76.0236 109.032 76.8396 110.52C77.6556 111.984 78.0636 113.676 78.0636 115.596ZM73.7796 114.3C73.7556 112.788 73.2156 111.576 72.1596 110.664C71.1036 109.752 69.7956 109.296 68.2356 109.296C66.8196 109.296 65.6076 109.752 64.5996 110.664C63.5916 111.552 62.9916 112.764 62.7996 114.3H73.7796ZM90.5983 115.956L97.0063 126H92.3623L88.0783 119.268L84.0463 126H79.7623L86.1703 116.244L79.7623 106.164H84.4063L88.6903 112.896L92.7223 106.164H97.0063L90.5983 115.956ZM104.855 109.512V120.492C104.855 121.236 105.023 121.776 105.359 122.112C105.719 122.424 106.319 122.58 107.159 122.58H109.679V126H106.439C104.591 126 103.175 125.568 102.191 124.704C101.207 123.84 100.715 122.436 100.715 120.492V109.512H98.3752V106.164H100.715V101.232H104.855V106.164H109.679V109.512H104.855Z" fill="white"/>
<path d="M42 53.5C40.067 53.5 38.5 55.067 38.5 57C38.5 58.933 40.067 60.5 42 60.5L42 53.5ZM102.475 59.4749C103.842 58.108 103.842 55.892 102.475 54.5251L80.201 32.2513C78.8342 30.8844 76.6181 30.8844 75.2513 32.2513C73.8844 33.6181 73.8844 35.8342 75.2513 37.201L95.0503 57L75.2513 76.799C73.8844 78.1658 73.8844 80.3819 75.2513 81.7487C76.6181 83.1156 78.8342 83.1156 80.201 81.7487L102.475 59.4749ZM42 60.5L100 60.5L100 53.5L42 53.5L42 60.5Z" fill="white"/>
<defs>
<linearGradient id="paint0_linear" x1="0" y1="0" x2="156.212" y2="141.287" gradientUnits="userSpaceOnUse">
<stop stop-color="#79F1A4"/>
<stop offset="1" stop-color="#0E5CAD"/>
</linearGradient>
</defs>
</svg>
