<svg width="241" height="102" viewBox="0 0 241 102" fill="none" xmlns="http://www.w3.org/2000/svg">
<rect width="241" height="102" rx="10" fill="url(#paint0_linear)"/>
<path d="M65.4943 64H61.3903L49.0423 45.316V64H44.9383V38.944H49.0423L61.3903 57.592V38.944H65.4943V64ZM89.0636 53.596C89.0636 54.34 89.0156 55.012 88.9196 55.612H73.7636C73.8836 57.196 74.4716 58.468 75.5276 59.428C76.5836 60.388 77.8796 60.868 79.4156 60.868C81.6236 60.868 83.1836 59.944 84.0956 58.096H88.5236C87.9236 59.92 86.8316 61.42 85.2476 62.596C83.6876 63.748 81.7436 64.324 79.4156 64.324C77.5196 64.324 75.8156 63.904 74.3036 63.064C72.8156 62.2 71.6396 61 70.7756 59.464C69.9356 57.904 69.5156 56.104 69.5156 54.064C69.5156 52.024 69.9236 50.236 70.7396 48.7C71.5796 47.14 72.7436 45.94 74.2316 45.1C75.7436 44.26 77.4716 43.84 79.4156 43.84C81.2876 43.84 82.9556 44.248 84.4196 45.064C85.8836 45.88 87.0236 47.032 87.8396 48.52C88.6556 49.984 89.0636 51.676 89.0636 53.596ZM84.7796 52.3C84.7556 50.788 84.2156 49.576 83.1596 48.664C82.1036 47.752 80.7956 47.296 79.2356 47.296C77.8196 47.296 76.6076 47.752 75.5996 48.664C74.5916 49.552 73.9916 50.764 73.7996 52.3H84.7796ZM101.598 53.956L108.006 64H103.362L99.0783 57.268L95.0463 64H90.7623L97.1703 54.244L90.7623 44.164H95.4063L99.6903 50.896L103.722 44.164H108.006L101.598 53.956ZM115.855 47.512V58.492C115.855 59.236 116.023 59.776 116.359 60.112C116.719 60.424 117.319 60.58 118.159 60.58H120.679V64H117.439C115.591 64 114.175 63.568 113.191 62.704C112.207 61.84 111.715 60.436 111.715 58.492V47.512H109.375V44.164H111.715V39.232H115.855V44.164H120.679V47.512H115.855Z" fill="white"/>
<path d="M142 47.5C140.067 47.5 138.5 49.067 138.5 51C138.5 52.933 140.067 54.5 142 54.5L142 47.5ZM202.475 53.4749C203.842 52.108 203.842 49.892 202.475 48.5251L180.201 26.2513C178.834 24.8844 176.618 24.8844 175.251 26.2513C173.884 27.6181 173.884 29.8342 175.251 31.201L195.05 51L175.251 70.799C173.884 72.1658 173.884 74.3819 175.251 75.7487C176.618 77.1156 178.834 77.1156 180.201 75.7487L202.475 53.4749ZM142 54.5L200 54.5L200 47.5L142 47.5L142 54.5Z" fill="white"/>
<defs>
<linearGradient id="paint0_linear" x1="0" y1="0" x2="73.2237" y2="173.009" gradientUnits="userSpaceOnUse">
<stop stop-color="#79F1A4"/>
<stop offset="1" stop-color="#0E5CAD"/>
</linearGradient>
</defs>
</svg>
