<svg width="38" height="38" viewBox="0 0 38 38" fill="none" xmlns="http://www.w3.org/2000/svg">
<g clip-path="url(#clip0)">
<path fill-rule="evenodd" clip-rule="evenodd" d="M3.5625 6.53125C3.5625 6.37378 3.62506 6.22276 3.73641 6.11141C3.84776 6.00006 3.99878 5.9375 4.15625 5.9375H24.3438C24.5012 5.9375 24.6522 6.00006 24.7636 6.11141C24.8749 6.22276 24.9375 6.37378 24.9375 6.53125V19.5938C24.9375 19.7512 24.8749 19.9022 24.7636 20.0136C24.6522 20.1249 24.5012 20.1875 24.3438 20.1875H16.0312C15.559 20.1879 15.1062 20.3759 14.7725 20.71L8.3125 27.17V21.9688C8.3125 21.4963 8.12483 21.0433 7.79078 20.7092C7.45674 20.3752 7.00367 20.1875 6.53125 20.1875H4.15625C3.99878 20.1875 3.84776 20.1249 3.73641 20.0136C3.62506 19.9022 3.5625 19.7512 3.5625 19.5938V6.53125ZM4.15625 2.375C3.05394 2.375 1.99679 2.81289 1.21734 3.59234C0.437889 4.37179 0 5.42894 0 6.53125L0 19.5938C0 21.888 1.862 23.75 4.15625 23.75H4.75V27.4146C4.75024 28.0989 4.95332 28.7676 5.33356 29.3365C5.71381 29.9053 6.25416 30.3486 6.88631 30.6105C7.51846 30.8723 8.21404 30.9408 8.88513 30.8074C9.55622 30.674 10.1727 30.3446 10.6566 29.8609L16.7699 23.75H24.3438C25.4461 23.75 26.5032 23.3121 27.2827 22.5327C28.0621 21.7532 28.5 20.6961 28.5 19.5938V6.53125C28.5 5.42894 28.0621 4.37179 27.2827 3.59234C26.5032 2.81289 25.4461 2.375 24.3438 2.375H4.15625ZM34.4375 11.2813C34.4375 11.1238 34.3749 10.9728 34.2636 10.8614C34.1522 10.7501 34.0012 10.6875 33.8438 10.6875H32.6562C32.1838 10.6875 31.7308 10.4998 31.3967 10.1658C31.0627 9.83174 30.875 9.37867 30.875 8.90625C30.875 8.43383 31.0627 7.98077 31.3967 7.64672C31.7308 7.31267 32.1838 7.125 32.6562 7.125H33.8438C36.138 7.125 38 8.987 38 11.2813V24.3438C38 25.4461 37.5621 26.5032 36.7827 27.2827C36.0032 28.0621 34.9461 28.5 33.8438 28.5H33.25V32.1646C33.2498 32.8489 33.0467 33.5176 32.6664 34.0865C32.2862 34.6553 31.7458 35.0986 31.1137 35.3605C30.4815 35.6223 29.786 35.6908 29.1149 35.5574C28.4438 35.424 27.8273 35.0946 27.3434 34.6109L21.8975 29.165C21.7225 29.0019 21.5821 28.8053 21.4848 28.5868C21.3874 28.3683 21.3351 28.1324 21.3308 27.8932C21.3266 27.6541 21.3706 27.4165 21.4602 27.1947C21.5498 26.9729 21.6831 26.7714 21.8523 26.6023C22.0214 26.4331 22.2229 26.2998 22.4447 26.2102C22.6665 26.1206 22.9041 26.0766 23.1432 26.0808C23.3824 26.0851 23.6183 26.1374 23.8368 26.2348C24.0553 26.3321 24.2519 26.4725 24.415 26.6475L29.6875 31.92V26.7188C29.6875 26.2463 29.8752 25.7933 30.2092 25.4592C30.5433 25.1252 30.9963 24.9375 31.4688 24.9375H33.8438C34.0012 24.9375 34.1522 24.8749 34.2636 24.7636C34.3749 24.6522 34.4375 24.5012 34.4375 24.3438V11.2813Z" fill="#85CFCB"/>
</g>
<defs>
<clipPath id="clip0">
<rect width="38" height="38" fill="white"/>
</clipPath>
</defs>
</svg>
