<svg width="50" height="50" viewBox="0 0 50 50" fill="none" xmlns="http://www.w3.org/2000/svg">
<path d="M46.0938 25C46.0938 20.8283 44.8568 16.7502 42.5392 13.2815C40.2216 9.81274 36.9275 7.1091 33.0734 5.51241C29.2193 3.91573 24.9783 3.4977 20.8867 4.3112C16.795 5.12469 13.0365 7.13317 10.0863 10.0827C7.13605 13.0322 5.12667 16.7903 4.31219 20.8817C3.49771 24.9732 3.91471 29.2143 5.51047 33.0687C7.10623 36.9232 9.80907 40.2179 13.2773 42.5364C16.7454 44.8548 20.8232 46.0928 24.9949 46.0938H25L25.0051 46.0936C30.5966 46.0859 35.9569 43.861 39.9103 39.9067C43.8637 35.9524 46.0874 30.5916 46.0938 25ZM27.3438 41.2361V30.4688H31.25C31.8716 30.4688 32.4678 30.2218 32.9073 29.7823C33.3468 29.3428 33.5938 28.7466 33.5938 28.125C33.5938 27.5034 33.3468 26.9073 32.9073 26.4677C32.4678 26.0282 31.8716 25.7813 31.25 25.7813H27.3438V21.875C27.3445 21.2536 27.5916 20.6579 28.031 20.2185C28.4704 19.7791 29.0661 19.532 29.6875 19.5313H32.8125C33.4341 19.5313 34.0303 19.2843 34.4698 18.8448C34.9093 18.4053 35.1563 17.8091 35.1563 17.1875C35.1563 16.5659 34.9093 15.9698 34.4698 15.5302C34.0303 15.0907 33.4341 14.8438 32.8125 14.8438H29.6875C27.8233 14.8458 26.0361 15.5873 24.7179 16.9054C23.3998 18.2236 22.6583 20.0108 22.6563 21.875V25.7813H18.75C18.1284 25.7813 17.5323 26.0282 17.0927 26.4677C16.6532 26.9073 16.4063 27.5034 16.4063 28.125C16.4063 28.7466 16.6532 29.3428 17.0927 29.7823C17.5323 30.2218 18.1284 30.4688 18.75 30.4688H22.6563V41.2359C18.551 40.6434 14.8225 38.5179 12.2212 35.2871C9.61989 32.0564 8.33885 27.9603 8.63588 23.8231C8.93292 19.6859 10.786 15.8148 13.8221 12.9888C16.8583 10.1628 20.8522 8.59172 25 8.59172C29.1478 8.59172 33.1417 10.1628 36.1779 12.9888C39.214 15.8148 41.0671 19.6859 41.3641 23.8231C41.6612 27.9603 40.3801 32.0564 37.7788 35.2871C35.1775 38.5179 31.449 40.6434 27.3438 41.2359V41.2361Z" fill="#219897"/>
</svg>
