<svg width="50" height="50" viewBox="0 0 50 50" fill="none" xmlns="http://www.w3.org/2000/svg">
<path d="M40.8459 14.5729C40.6875 13.9521 40.2375 13.4833 39.7229 13.3396C38.8125 13.0833 34.375 12.5 25 12.5C15.625 12.5 11.1917 13.0833 10.2729 13.3396C9.7646 13.4812 9.3146 13.95 9.15419 14.5729C8.9271 15.4562 8.33335 19.1583 8.33335 25C8.33335 30.8416 8.9271 34.5416 9.15419 35.4291C9.31252 36.0479 9.76252 36.5166 10.275 36.6583C11.1917 36.9166 15.625 37.5 25 37.5C34.375 37.5 38.8104 36.9166 39.7271 36.6604C40.2354 36.5187 40.6854 36.05 40.8459 35.4271C41.0729 34.5437 41.6667 30.8333 41.6667 25C41.6667 19.1666 41.0729 15.4583 40.8459 14.5729ZM44.8813 13.5375C45.8334 17.25 45.8334 25 45.8334 25C45.8334 25 45.8334 32.75 44.8813 36.4625C44.3521 38.5146 42.8042 40.1291 40.8438 40.675C37.2834 41.6666 25 41.6666 25 41.6666C25 41.6666 12.7229 41.6666 9.15627 40.675C7.18752 40.1208 5.64169 38.5083 5.11877 36.4625C4.16669 32.75 4.16669 25 4.16669 25C4.16669 25 4.16669 17.25 5.11877 13.5375C5.64794 11.4854 7.19585 9.87081 9.15627 9.32498C12.7229 8.33331 25 8.33331 25 8.33331C25 8.33331 37.2834 8.33331 40.8438 9.32498C42.8125 9.87915 44.3584 11.4916 44.8813 13.5375ZM20.8334 32.2916V17.7083L33.3334 25L20.8334 32.2916Z" fill="#219897"/>
</svg>
