<svg width="125" height="56" viewBox="0 0 125 56" fill="none" xmlns="http://www.w3.org/2000/svg">
<path d="M5.34 14.78C4.55467 14.78 3.90367 14.5423 3.387 14.067C2.891 13.571 2.643 12.9613 2.643 12.238C2.643 11.5147 2.891 10.9153 3.387 10.44C3.90367 9.944 4.55467 9.696 5.34 9.696C6.10467 9.696 6.735 9.944 7.231 10.44C7.727 10.9153 7.975 11.5147 7.975 12.238C7.975 12.9613 7.727 13.571 7.231 14.067C6.735 14.5423 6.10467 14.78 5.34 14.78ZM7.479 36.821C7.479 38.7223 7.00367 40.0863 6.053 40.913C5.123 41.7603 3.77967 42.184 2.023 42.184H0.101V38.495H1.341C2.00233 38.495 2.46733 38.3607 2.736 38.092C3.00467 37.844 3.139 37.4307 3.139 36.852V16.826H7.479V36.821ZM27.9799 16.826V34H23.6089V31.83C23.0509 32.574 22.3173 33.163 21.4079 33.597C20.5193 34.0103 19.5479 34.217 18.4939 34.217C17.1506 34.217 15.9623 33.938 14.9289 33.38C13.8956 32.8013 13.0793 31.9643 12.4799 30.869C11.9013 29.753 11.6119 28.4303 11.6119 26.901V16.826H15.9519V26.281C15.9519 27.645 16.2929 28.699 16.9749 29.443C17.6569 30.1663 18.5869 30.528 19.7649 30.528C20.9636 30.528 21.9039 30.1663 22.5859 29.443C23.2679 28.699 23.6089 27.645 23.6089 26.281V16.826H27.9799ZM38.834 34.279C37.4287 34.279 36.168 34.031 35.052 33.535C33.936 33.0183 33.0474 32.326 32.386 31.458C31.7454 30.59 31.394 29.629 31.332 28.575H35.703C35.7857 29.2363 36.106 29.784 36.664 30.218C37.2427 30.652 37.9557 30.869 38.803 30.869C39.6297 30.869 40.2704 30.7037 40.725 30.373C41.2004 30.0423 41.438 29.6187 41.438 29.102C41.438 28.544 41.1487 28.1307 40.57 27.862C40.012 27.5727 39.113 27.2627 37.873 26.932C36.5917 26.622 35.5377 26.3017 34.711 25.971C33.905 25.6403 33.2024 25.134 32.603 24.452C32.0244 23.77 31.735 22.8503 31.735 21.693C31.735 20.7423 32.0037 19.8743 32.541 19.089C33.099 18.3037 33.8844 17.6837 34.897 17.229C35.9304 16.7743 37.1394 16.547 38.524 16.547C40.57 16.547 42.2027 17.0637 43.422 18.097C44.6414 19.1097 45.313 20.484 45.437 22.22H41.283C41.221 21.538 40.9317 21.0007 40.415 20.608C39.919 20.1947 39.2474 19.988 38.4 19.988C37.6147 19.988 37.005 20.1327 36.571 20.422C36.1577 20.7113 35.951 21.1143 35.951 21.631C35.951 22.2097 36.2404 22.654 36.819 22.964C37.3977 23.2533 38.2967 23.553 39.516 23.863C40.756 24.173 41.779 24.4933 42.585 24.824C43.391 25.1547 44.0834 25.6713 44.662 26.374C45.2614 27.056 45.5714 27.9653 45.592 29.102C45.592 30.094 45.313 30.9827 44.755 31.768C44.2177 32.5533 43.4324 33.1733 42.399 33.628C41.3864 34.062 40.198 34.279 38.834 34.279ZM54.2076 20.391V28.699C54.2076 29.2777 54.342 29.7013 54.6106 29.97C54.9 30.218 55.3753 30.342 56.0366 30.342H58.0516V34H55.3236C51.6656 34 49.8366 32.2227 49.8366 28.668V20.391H47.7906V16.826H49.8366V12.579H54.2076V16.826H58.0516V20.391H54.2076ZM63.3742 14.78C62.6095 14.78 61.9688 14.5423 61.4522 14.067C60.9562 13.571 60.7082 12.9613 60.7082 12.238C60.7082 11.5147 60.9562 10.9153 61.4522 10.44C61.9688 9.944 62.6095 9.696 63.3742 9.696C64.1388 9.696 64.7692 9.944 65.2652 10.44C65.7818 10.9153 66.0402 11.5147 66.0402 12.238C66.0402 12.9613 65.7818 13.571 65.2652 14.067C64.7692 14.5423 64.1388 14.78 63.3742 14.78ZM65.5132 16.826V34H61.1732V16.826H65.5132ZM68.6851 25.413C68.6851 23.6357 69.0468 22.0857 69.7701 20.763C70.4934 19.4197 71.4958 18.3863 72.7771 17.663C74.0584 16.919 75.5258 16.547 77.1791 16.547C79.3078 16.547 81.0644 17.0843 82.4491 18.159C83.8544 19.213 84.7948 20.701 85.2701 22.623H80.5891C80.3411 21.879 79.9174 21.3003 79.3181 20.887C78.7394 20.453 78.0161 20.236 77.1481 20.236C75.9081 20.236 74.9264 20.6907 74.2031 21.6C73.4798 22.4887 73.1181 23.7597 73.1181 25.413C73.1181 27.0457 73.4798 28.3167 74.2031 29.226C74.9264 30.1147 75.9081 30.559 77.1481 30.559C78.9048 30.559 80.0518 29.7737 80.5891 28.203H85.2701C84.7948 30.063 83.8544 31.5407 82.4491 32.636C81.0438 33.7313 79.2871 34.279 77.1791 34.279C75.5258 34.279 74.0584 33.9173 72.7771 33.194C71.4958 32.45 70.4934 31.4167 69.7701 30.094C69.0468 28.7507 68.6851 27.1903 68.6851 25.413ZM104.415 25.041C104.415 25.661 104.373 26.219 104.291 26.715H91.7355C91.8389 27.955 92.2729 28.9263 93.0375 29.629C93.8022 30.3317 94.7425 30.683 95.8585 30.683C97.4705 30.683 98.6175 29.9907 99.2995 28.606H103.981C103.485 30.2593 102.534 31.6233 101.129 32.698C99.7232 33.752 97.9975 34.279 95.9515 34.279C94.2982 34.279 92.8102 33.9173 91.4875 33.194C90.1855 32.45 89.1625 31.4063 88.4185 30.063C87.6952 28.7197 87.3335 27.1697 87.3335 25.413C87.3335 23.6357 87.6952 22.0753 88.4185 20.732C89.1419 19.3887 90.1545 18.3553 91.4565 17.632C92.7585 16.9087 94.2569 16.547 95.9515 16.547C97.5842 16.547 99.0412 16.8983 100.323 17.601C101.625 18.3037 102.627 19.306 103.33 20.608C104.053 21.8893 104.415 23.367 104.415 25.041ZM99.9195 23.801C99.8989 22.685 99.4959 21.7963 98.7105 21.135C97.9252 20.453 96.9642 20.112 95.8275 20.112C94.7529 20.112 93.8435 20.4427 93.0995 21.104C92.3762 21.7447 91.9319 22.6437 91.7665 23.801H99.9195Z" fill="#219897"/>
<path d="M84 34.426C87.1552 42.3116 96.1055 46.1463 103.991 42.9911C111.877 39.8359 115.711 30.8855 112.556 23" stroke="#FFE602" stroke-width="10"/>
</svg>
